<?xml version="1.0" encoding="utf-8"?>
<svg version="1.1" xmlns="http://www.w3.org/2000/svg" width="128" height="128">
  <path d="M 1.112 2.051 C 43.352 2.051 85.592 2.051 129.112 2.051 C 129.112 43.567 129.112 85.084 129.112 127.858 C 86.872 127.858 44.632 127.858 1.112 127.858 C 1.112 86.342 1.112 44.825 1.112 2.051 Z" fill="#8AAD0F" style=""/>
  <path d="M0 0 C42.24 0 84.48 0 128 0 C128 42.24 128 84.48 128 128 C85.76 128 43.52 128 0 128 C0 85.76 0 43.52 0 0 Z M8 9 C8 39.36 8 69.72 8 101 C13.61 101 19.22 101 25 101 C25 106.61 25 112.22 25 118 C50.74 118 76.48 118 103 118 C103 112.39 103 106.78 103 101 C108.61 101 114.22 101 120 101 C120 70.64 120 40.28 120 9 C83.04 9 46.08 9 8 9 Z " fill="#F4F4F5" transform="translate(0,0)"/>
  <path d="M0 0 C36.96 0 73.92 0 112 0 C112 30.36 112 60.72 112 92 C111.01 92 110.02 92 109 92 C109 63.95 109 35.9 109 7 C75.34 7 41.68 7 7 7 C7 35.05 7 63.1 7 92 C4.69 92 2.38 92 0 92 C0 61.64 0 31.28 0 0 Z " fill="#7A9911" transform="translate(8,9)"/>
  <path d="M0 0 C25.74 0 51.48 0 78 0 C78 5.61 78 11.22 78 17 C52.26 17 26.52 17 0 17 C0 11.39 0 5.78 0 0 Z " fill="#161616" transform="translate(25,101)"/>
  <path d="M0 0 C36.96 0 73.92 0 112 0 C112 0.99 112 1.98 112 3 C76.03 3 40.06 3 3 3 C3 32.37 3 61.74 3 92 C2.01 92 1.02 92 0 92 C0 61.64 0 31.28 0 0 Z " fill="#161616" transform="translate(8,9)"/>
  <path d="M0 0 C34.98 0 69.96 0 106 0 C106 1.32 106 2.64 106 4 C71.02 4 36.04 4 0 4 C0 2.68 0 1.36 0 0 Z " fill="#C3C3C3" transform="translate(11,5)"/>
  <path d="M0 0 C1.32 0 2.64 0 4 0 C4 5.61 4 11.22 4 17 C29.74 17 55.48 17 82 17 C82 11.39 82 5.78 82 0 C83.32 0 84.64 0 86 0 C86 6.6 86 13.2 86 20 C57.62 20 29.24 20 0 20 C0 13.4 0 6.8 0 0 Z " fill="#C3C3C3" transform="translate(21,101)"/>
  <path d="M0 0 C0.33 0 0.66 0 1 0 C1 41.25 1 82.5 1 125 C1.99 125 2.98 125 4 125 C4 125.99 4 126.98 4 128 C2.68 128 1.36 128 0 128 C0 85.76 0 43.52 0 0 Z " fill="#BEBEBE" transform="translate(0,0)"/>
  <path d="M0 0 C4.62 0 9.24 0 14 0 C14 1.32 14 2.64 14 4 C9.38 4 4.76 4 0 4 C0 2.68 0 1.36 0 0 Z " fill="#161616" transform="translate(57,89)"/>
  <path d="M0 0 C1.32 0 2.64 0 4 0 C4 3.3 4 6.6 4 10 C1.69 10 -0.62 10 -3 10 C-3 9.01 -3 8.02 -3 7 C-2.01 7 -1.02 7 0 7 C0 4.69 0 2.38 0 0 Z " fill="#161616" transform="translate(74,79)"/>
  <path d="M0 0 C1.32 0 2.64 0 4 0 C4 1.98 4 3.96 4 6 C4.99 6 5.98 6 7 6 C7 6.99 7 7.98 7 9 C4.69 9 2.38 9 0 9 C0 6.03 0 3.06 0 0 Z " fill="#161616" transform="translate(50,80)"/>
  <path d="M0 0 C4.62 0 9.24 0 14 0 C14 0.99 14 1.98 14 3 C9.38 3 4.76 3 0 3 C0 2.01 0 1.02 0 0 Z " fill="#7A9911" transform="translate(57,93)"/>
  <path d="M0 0 C2.31 0 4.62 0 7 0 C7 1.32 7 2.64 7 4 C4.69 4 2.38 4 0 4 C0 2.68 0 1.36 0 0 Z " fill="#161616" transform="translate(92,69)"/>
  <path d="M0 0 C2.31 0 4.62 0 7 0 C7 1.32 7 2.64 7 4 C4.69 4 2.38 4 0 4 C0 2.68 0 1.36 0 0 Z " fill="#161616" transform="translate(29,69)"/>
  <path d="M0 0 C2.31 0 4.62 0 7 0 C7 0.99 7 1.98 7 3 C4.69 3 2.38 3 0 3 C0 2.01 0 1.02 0 0 Z " fill="#AC1C48" transform="translate(110,118)"/>
  <path d="M0 0 C2.31 0 4.62 0 7 0 C7 0.99 7 1.98 7 3 C4.69 3 2.38 3 0 3 C0 2.01 0 1.02 0 0 Z " fill="#AC1C48" transform="translate(110,113)"/>
  <path d="M0 0 C2.31 0 4.62 0 7 0 C7 0.99 7 1.98 7 3 C4.69 3 2.38 3 0 3 C0 2.01 0 1.02 0 0 Z " fill="#AC1C48" transform="translate(110,108)"/>
  <path d="M0 0 C2.31 0 4.62 0 7 0 C7 0.99 7 1.98 7 3 C4.69 3 2.38 3 0 3 C0 2.01 0 1.02 0 0 Z " fill="#4F6013" transform="translate(71,86)"/>
  <path d="M0 0 C2.31 0 4.62 0 7 0 C7 0.99 7 1.98 7 3 C4.69 3 2.38 3 0 3 C0 2.01 0 1.02 0 0 Z " fill="#4F6013" transform="translate(50,86)"/>
  <path d="M 24.996 72.99 C 26.328 72.99 27.66 72.99 29.032 72.99 C 29.032 74.31 29.032 75.63 29.032 76.99 C 27.7 76.99 26.368 76.99 24.996 76.99 C 24.996 75.67 24.996 74.35 24.996 72.99 Z" fill="#161616" style="stroke-width: 1px;"/>
  <path d="M 36.013 73.009 C 37.345 73.009 38.677 73.009 40.049 73.009 C 40.049 74.329 40.049 75.649 40.049 77.009 C 38.717 77.009 37.385 77.009 36.013 77.009 C 36.013 75.689 36.013 74.369 36.013 73.009 Z" fill="#161616" style="stroke-width: 1px;"/>
  <path d="M 98.951 72.955 C 100.283 72.955 101.615 72.955 102.987 72.955 C 102.987 74.275 102.987 75.595 102.987 76.955 C 101.655 76.955 100.323 76.955 98.951 76.955 C 98.951 75.635 98.951 74.315 98.951 72.955 Z" fill="#161616" style="stroke-width: 1px;"/>
  <path d="M 88 73.024 C 89.332 73.024 90.664 73.024 92.036 73.024 C 92.036 74.344 92.036 75.664 92.036 77.024 C 90.704 77.024 89.372 77.024 88 77.024 C 88 75.704 88 74.384 88 73.024 Z" fill="#161616" style="stroke-width: 1px;"/>
</svg>