<svg width="320" height="320" version="1.1" xmlns="http://www.w3.org/2000/svg" desc="Created with imagetracer.js version 1.2.6" ><path fill="rgb(0,0,0)" stroke="rgb(0,0,0)" stroke-width="1" opacity="0" d="M 0 0 L 79.5 0 L 80 0.5 L 80 20 L 60 20 L 60 40 L 40.5 40 L 40 40.5 L 40 200 L 60 200 L 60 220 L 40.5 220 L 40 220.5 L 40 320 L 0 320 L 0 0 Z " /><path fill="rgb(0,0,0)" stroke="rgb(0,0,0)" stroke-width="1" opacity="0" d="M 240 0 L 319.5 0 L 320 0.5 L 320 320 L 260.5 320 L 260 319.5 L 260 100 L 279.5 100 L 280 99.5 L 280 20 L 240 20 L 240 0 Z " /><path fill="rgb(218,56,41)" stroke="rgb(218,56,41)" stroke-width="1" opacity="1" d="M 140 280 L 160 280 L 160 300 L 180 300 L 180 320 L 160 320 L 160 300 L 140 300 L 140 280 Z " /><path fill="rgb(205,153,78)" stroke="rgb(205,153,78)" stroke-width="1" opacity="1" d="M 120 60 L 199.5 60 L 200 60.5 L 200 80 L 120.5 80 L 120 79.5 L 120 60 Z " /><path fill="rgb(205,153,78)" stroke="rgb(205,153,78)" stroke-width="1" opacity="1" d="M 100 160 L 120 160 L 120 179.5 L 120.5 180 L 180 180 L 180 200 L 200 200 L 200 220 L 160.5 220 L 160 219.5 L 160 200 L 120 200 L 120 180 L 100 180 L 100 160 Z " /><path fill="rgb(205,153,78)" stroke="rgb(205,153,78)" stroke-width="1" opacity="1" d="M 220 200 L 240 200 L 240 220 L 220 220 L 220 200 Z " /><path fill="rgb(205,153,78)" stroke="rgb(205,153,78)" stroke-width="1" opacity="1" d="M 60 300 L 100 300 L 100 320 L 60 320 L 60 300 Z " /><path fill="rgb(2,3,6)" stroke="rgb(2,3,6)" stroke-width="1" opacity="1" d="M 200 60 L 220 60 L 220 80 L 200 80 L 200 60 Z " /><path fill="rgb(2,3,6)" stroke="rgb(2,3,6)" stroke-width="1" opacity="1" d="M 100 80 L 120 80 L 120 100 L 100 100 L 100 140 L 80 140 L 80 100 L 100 100 L 100 80 Z " /><path fill="rgb(2,3,6)" stroke="rgb(2,3,6)" stroke-width="1" opacity="1" d="M 100 220 L 120 220 L 120 240 L 100 240 L 100 280 L 80 280 L 80 300 L 60 300 L 60 280 L 80 280 L 80 240 L 100 240 L 100 220 Z " /><path fill="rgb(2,3,6)" stroke="rgb(2,3,6)" stroke-width="1" opacity="1" d="M 220 260 L 240 260 L 240 320 L 220 320 L 220 260 Z " /><path fill="rgb(2,3,6)" stroke="rgb(2,3,6)" stroke-width="1" opacity="1" d="M 160 280 L 200 280 L 200 300 L 160 300 L 160 320 L 140 320 L 140 300 L 160 300 L 160 280 Z " /><path fill="rgb(0,0,0)" stroke="rgb(0,0,0)" stroke-width="1" opacity="1" d="M 100 20 L 220 20 L 220 40 L 260 40 L 260 80 L 220 80 L 220 60.5 L 219.5 60 L 120 60 L 120 80 L 100 80 L 100 100 L 80 100 L 80 140 L 100 140 L 100 180 L 120 180 L 120 200 L 159.5 200 L 160 200.5 L 160 220 L 200 220 L 200 200 L 180 200 L 180 180 L 220 180 L 220 219.5 L 220.5 220 L 240 220 L 240 260 L 220 260 L 220 320 L 200 320 L 200 280 L 180 280 L 180 260 L 160 260 L 160 280 L 140 280 L 140 320 L 100 320 L 100 300 L 80 300 L 80 280 L 60 280 L 60 240 L 80 240 L 80 220 L 100 220 L 100 200 L 80 200 L 80 180 L 60.5 180 L 60 179.5 L 60 60 L 80 60 L 80 40 L 100 40 L 100 20 Z M 100 220 L 100 240 L 120 240 L 120 220 L 100 220 Z M 80 240 L 80 280 L 100 280 L 100 240 L 80 240 Z " /><path fill="rgb(0,0,0)" stroke="rgb(0,0,0)" stroke-width="1" opacity="1" d="M 140 100 L 160 100 L 160 140 L 140 140 L 140 100 Z " /><path fill="rgb(0,0,0)" stroke="rgb(0,0,0)" stroke-width="1" opacity="1" d="M 200 100 L 220 100 L 220 140 L 200 140 L 200 100 Z " /><path fill="rgb(236,180,103)" stroke="rgb(236,180,103)" stroke-width="1" opacity="1" d="M 200 80 L 240 80 L 240 100 L 200 100 L 200 80 Z " /><path fill="rgb(236,180,103)" stroke="rgb(236,180,103)" stroke-width="1" opacity="1" d="M 160 140 L 220 140 L 220 160 L 160 160 L 160 140 Z " /><path fill="rgb(255,205,129)" stroke="rgb(255,205,129)" stroke-width="1" opacity="1" d="M 120 80 L 200 80 L 200 140 L 160 140 L 160 160 L 220 160 L 220 100 L 240 100 L 240 199.5 L 239.5 200 L 220 200 L 220 180.5 L 219.5 180 L 120 180 L 120 160 L 100.5 160 L 100 159.5 L 100 100 L 120 100 L 120 80 Z M 140 100 L 140 140 L 160 140 L 160 100 L 140 100 Z " /><path fill="rgb(15,255,255)" stroke="rgb(15,255,255)" stroke-width="1" opacity="1" d="M 160 260 L 180 260 L 180 280 L 160 280 L 160 260 Z " /><path fill="rgb(15,255,255)" stroke="rgb(15,255,255)" stroke-width="1" opacity="1" d="M 180 300 L 200 300 L 200 320 L 180 320 L 180 300 Z " /><path fill="rgb(255,255,255)" stroke="rgb(255,255,255)" stroke-width="1" opacity="1" d="M 80 0 L 240 0 L 240 20 L 280 20 L 280 100 L 260.5 100 L 260 100.5 L 260 319.5 L 259.5 320 L 240 320 L 240 80.5 L 240.5 80 L 260 80 L 260 40 L 220 40 L 220 20.5 L 219.5 20 L 100 20 L 100 40 L 80 40 L 80 60 L 60.5 60 L 60 60.5 L 60 180 L 80 180 L 80 200 L 100 200 L 100 220 L 80 220 L 80 240 L 60 240 L 60 319.5 L 59.5 320 L 40 320 L 40 220.5 L 40.5 220 L 60 220 L 60 200 L 40.5 200 L 40 199.5 L 40 40 L 60 40 L 60 20 L 80 20 L 80 0 Z " /></svg>